<svg width="68" height="68" viewBox="0 0 68 68" fill="none" xmlns="http://www.w3.org/2000/svg">
<rect width="68" height="68" rx="34" fill="#FAFAFA"/>
<path fill-rule="evenodd" clip-rule="evenodd" d="M27.158 35.0129H25.739V34.1191C26.2093 34.0621 26.6877 34.0621 27.158 34.1191V35.0129ZM32.1486 41.4649V40.0459H33.0855C33.1425 40.5162 33.1425 40.994 33.0855 41.4649H32.1486ZM25.7396 46.4479H27.1585V47.392C26.6882 47.4487 26.2099 47.4487 25.7396 47.392V46.4479ZM25.5935 41.0269L25.8034 36.4853H27.0114L27.1866 40.379L29.6501 42.9909L28.7917 43.8499L25.5935 41.0269ZM20.728 40.0458V41.4648H19.812C19.7554 40.9945 19.7554 40.5167 19.812 40.0458H20.728ZM31.1915 26.1493H24.48L28.9365 22.6079H35.27L31.1915 26.1493ZM39.9695 26.1493H33.636L37.7145 22.6079H44.0485L39.9695 26.1493ZM34.9265 30.3802H28.0485V28.7718H34.9265V30.3802ZM26.448 32.5513C30.9746 32.5513 34.652 36.2282 34.652 40.7548C34.652 42.3731 34.1761 43.9524 33.279 45.2975H41.0695L47 39.707V21H28.343L21.906 26.1495V33.9235C23.2529 33.0266 24.8286 32.5516 26.4482 32.5516L26.448 32.5513ZM19 40.7548C19 44.8636 22.3393 48.2028 26.448 48.2028C30.5574 48.2028 33.896 44.8641 33.896 40.7548C33.896 36.6444 30.5579 33.3068 26.448 33.3068C22.3365 33.3068 19 36.6433 19 40.7548Z" fill="#666666"/>
</svg>
