<svg width="68" height="68" viewBox="0 0 68 68" fill="none" xmlns="http://www.w3.org/2000/svg">
<rect width="68" height="68" rx="34" fill="#FEF4EB"/>
<path fill-rule="evenodd" clip-rule="evenodd" d="M27.1721 23.0001H42.3076L42.3078 23C43.5575 23 44.5002 23.9525 44.5 25.2156V43.5806L43.1281 44.9621L40.8004 43.3993C40.6517 43.2994 40.4565 43.2994 40.3076 43.3993L37.9233 45L35.539 43.3993C35.4647 43.3495 35.3786 43.3245 35.2926 43.3245C35.2065 43.3245 35.1206 43.3495 35.0461 43.3993L32.6618 45L30.2773 43.3995C30.1286 43.2996 29.9334 43.2996 29.7846 43.3995L27.8386 44.7055V24.7743C27.8386 24.0852 27.5885 23.4655 27.1721 23.0001ZM30.908 38.0103H38.8001C39.0424 38.0103 39.2385 37.8165 39.2387 37.5773C39.2387 37.3381 39.0424 37.1442 38.8001 37.1442H30.908C30.6657 37.1442 30.4694 37.3381 30.4694 37.5773C30.4694 37.8165 30.6657 38.0103 30.908 38.0103ZM30.9078 34.4788H41.4307C41.673 34.4788 41.8693 34.2849 41.8693 34.0458C41.8693 33.8066 41.673 33.6127 41.4307 33.6127H30.9078C30.6656 33.6127 30.4693 33.8066 30.4693 34.0458C30.4693 34.2849 30.6656 34.4788 30.9078 34.4788ZM30.9076 30.0806C30.6654 30.0806 30.4691 30.2745 30.4691 30.5137C30.4691 30.753 30.6654 30.9469 30.9076 30.9467H37.9232C38.1654 30.9467 38.3617 30.7529 38.3617 30.5137C38.3617 30.2745 38.1654 30.0806 37.9232 30.0806H30.9076ZM30.9078 27.4152H41.4307C41.673 27.4152 41.8693 27.2213 41.8693 26.9822C41.8693 26.743 41.673 26.5491 41.4307 26.5491H30.9078C30.6656 26.5491 30.4693 26.743 30.4693 26.9822C30.4693 27.2213 30.6656 27.4152 30.9078 27.4152ZM27.0077 38.0276L25.0617 36.7213C24.8865 36.6039 24.6512 36.6269 24.5026 36.7761L23.5 37.7855L23.5 24.8751C23.5 23.8803 24.2705 23.1009 25.2538 23.1009C26.2371 23.1009 27.0077 23.8803 27.0077 24.8751L27.0077 38.0276Z" fill="#F27A1A"/>
</svg>
