<svg width="68" height="68" viewBox="0 0 68 68" fill="none" xmlns="http://www.w3.org/2000/svg">
<rect width="68" height="68" rx="34" fill="#FAFAFA"/>
<path d="M51 29.0377C50.9973 30.9643 50.303 32.8261 49.0434 34.2839C47.7841 35.7415 46.0429 36.6987 44.137 36.9811C43.966 38.0419 44.0341 39.1277 44.3365 40.159C44.4074 40.4031 44.3282 40.6664 44.1338 40.8303C43.9394 40.9945 43.6665 41.0288 43.4378 40.9176C42.208 40.3114 41.102 39.4815 40.176 38.4704V38.1207C40.1731 35.4625 39.1164 32.9141 37.2377 31.0335C35.3586 29.1533 32.8107 28.0947 30.1524 28.09H29.8727H29.8729C30.1053 26.1383 31.0445 24.3391 32.5133 23.0329C33.9819 21.7264 35.8782 21.0031 37.8441 21H42.9588C45.0909 21 47.1356 21.8467 48.6435 23.3538C50.1515 24.8612 50.999 26.9056 51 29.0375L51 29.0377ZM38.2216 38.1277C38.2216 40.2603 37.3744 42.3057 35.8663 43.8135C34.3585 45.3216 32.3131 46.1689 30.1805 46.1689H28.8275C27.8137 48.0952 25.9222 49.3399 24.5832 50.0147V50.0145C24.3534 50.1286 24.0781 50.0962 23.8813 49.9318C23.6843 49.7675 23.603 49.5024 23.6743 49.2558C23.9691 48.2279 24.0323 47.1473 23.8596 46.0918C21.9513 45.8084 20.2088 44.8483 18.9495 43.3871C17.6904 41.9256 16.9986 40.0602 17 38.1311C17 35.9985 17.8472 33.9534 19.3553 32.4453C20.8632 30.9372 22.9085 30.0902 25.0412 30.0902H30.1734C32.3073 30.0883 34.3544 30.9345 35.8639 32.4429C37.3735 33.9509 38.2217 35.9973 38.2217 38.1311L38.2216 38.1277ZM28.3488 42.1167C28.3488 41.7775 28.1444 41.4714 27.8308 41.3417C27.5172 41.2117 27.1565 41.2834 26.9163 41.5234C26.6764 41.7634 26.6047 42.1243 26.7346 42.4379C26.8644 42.7515 27.1704 42.9559 27.5097 42.9559C27.7323 42.9559 27.9457 42.8673 28.103 42.71C28.2605 42.5527 28.3488 42.3394 28.3488 42.1167L28.3488 42.1167ZM30.3695 36.0824C30.3417 35.3396 30.0278 34.636 29.4938 34.1188C28.9595 33.6015 28.2464 33.3106 27.5028 33.3067H27.4852C26.9492 33.3084 26.4247 33.4618 25.9718 33.7488C25.5192 34.0358 25.1565 34.4448 24.9261 34.9289C24.7254 35.3449 24.8997 35.8448 25.316 36.0458C25.7321 36.2465 26.232 36.0722 26.433 35.6559C26.5278 35.4571 26.6761 35.2886 26.8615 35.1696C27.0468 35.0503 27.2617 34.985 27.4819 34.9813C27.7906 34.9859 28.0859 35.1079 28.3086 35.322C28.531 35.5361 28.6641 35.8266 28.681 36.1349C28.6897 36.3868 28.6183 36.635 28.4771 36.8436C28.3356 37.0523 28.1315 37.2106 27.8942 37.2957C27.5396 37.4074 27.2292 37.6279 27.007 37.9259C26.7849 38.2241 26.6622 38.5846 26.6566 38.9565V39.6242C26.6566 40.0856 27.0307 40.4597 27.4924 40.4597C27.9538 40.4597 28.3279 40.0856 28.3279 39.6242V38.9565C28.3279 38.9075 28.4118 38.8797 28.4118 38.876C28.9966 38.6846 29.5036 38.309 29.8569 37.8054C30.2105 37.3019 30.3915 36.6975 30.3732 36.0825L30.3695 36.0824Z" fill="#999999"/>
</svg>
