<svg width="68" height="68" viewBox="0 0 68 68" fill="none" xmlns="http://www.w3.org/2000/svg">
<rect width="68" height="68" rx="34" fill="#FFF0E4"/>
<path d="M45.9996 30.0664V27.2388C46.0108 26.4454 45.707 25.68 45.1545 25.1104C44.6022 24.5406 43.8465 24.2132 43.0531 24.1999H41.5998V22.7333C41.5998 22.4712 41.46 22.2292 41.2331 22.0982C41.0062 21.9673 40.7267 21.9673 40.4998 22.0982C40.2729 22.2292 40.1331 22.4712 40.1331 22.7333V24.1999H29.8668V22.7333C29.8668 22.4712 29.727 22.2292 29.5001 22.0982C29.2733 21.9673 28.9937 21.9673 28.7668 22.0982C28.54 22.2292 28.4002 22.4712 28.4002 22.7333V24.1999H26.9468C26.1534 24.2132 25.3977 24.5406 24.8454 25.1104C24.293 25.68 23.9891 26.4454 24.0003 27.2388V30.0664H45.9996Z" fill="#F27A1A"/>
<path d="M24.0003 31.5332V40.9606C23.9892 41.754 24.293 42.5194 24.8454 43.0891C25.3977 43.6589 26.1534 43.9862 26.9468 43.9995H43.0532C43.8466 43.9862 44.6023 43.6589 45.1546 43.0891C45.7071 42.5194 46.0109 41.754 45.9997 40.9606V31.5332H24.0003Z" fill="#F27A1A"/>
</svg>
