<svg width="57" height="18" viewBox="0 0 57 18" fill="none" xmlns="http://www.w3.org/2000/svg">
<g clip-path="url(#clip0_230_1485)">
<path fill-rule="evenodd" clip-rule="evenodd" d="M14.25 0.100098L19.7308 8.1751L25.5404 0.100098H14.1404H14.25Z" fill="#FEC10E"/>
<path fill-rule="evenodd" clip-rule="evenodd" d="M7.01538 4.3501L0 16.9938H3.39808L4.71346 14.4438H10.6327L11.9481 16.9938H15.3462L8.33077 4.3501H7.01538ZM7.67308 8.28135L9.75577 12.3188H5.59038L7.67308 8.1751V8.28135Z" fill="#231F20"/>
<path fill-rule="evenodd" clip-rule="evenodd" d="M23.0192 16.8877L19.7307 12.8502L17.1 16.8877H13.5923L18.1961 10.5127L13.8115 4.45645H17.1L19.8404 8.1752L22.4711 4.45645H25.7596L21.375 10.5127L26.6365 16.8877H23.0192ZM38.0365 11.5752H29.0481C29.0536 12.0172 29.1539 12.4533 29.3426 12.8557C29.5313 13.2581 29.8043 13.618 30.1442 13.9127C30.8019 14.4439 31.5692 14.6564 32.6654 14.6564C33.9807 14.6564 34.9673 14.3377 35.7346 13.5939L36.8307 15.8252C35.7346 16.6752 34.3096 17.1002 32.2269 17.1002C30.2538 17.1002 28.7192 16.5689 27.6231 15.4002C26.4768 14.1459 25.8862 12.5046 25.9788 10.8314C25.9788 8.91895 26.5269 7.43145 27.7327 6.15645C28.8288 4.88145 30.3634 4.1377 32.2269 4.1377C33.9807 4.1377 35.5154 4.66895 36.6115 5.73145C37.7077 6.79395 38.2558 8.1752 38.2558 9.98145C38.2558 10.3002 38.2558 10.8314 38.0365 11.5752ZM29.2673 9.34395H35.2961C35.1865 7.53769 34.2 6.58145 32.3365 6.58145C30.5827 6.58145 29.5961 7.53769 29.1577 9.34395H29.2673ZM38.8038 16.0377L39.9 13.8064C40.7769 14.4439 41.7634 14.8689 42.8596 14.8689C43.9557 14.8689 44.6134 14.3377 44.6134 13.5939C44.6134 13.0627 44.2846 12.5314 43.7365 12.1064L42.0923 11.3627C39.9 10.4064 38.8038 9.2377 38.8038 7.64395C38.8038 6.4752 39.2423 5.51895 40.2288 4.9877C40.9961 4.45645 41.9827 4.1377 43.1884 4.1377C44.5038 4.1377 45.8192 4.45645 46.9154 5.09395L46.0384 7.21895C45.4904 6.79395 44.5038 6.4752 43.4077 6.4752C42.3115 6.4752 41.8731 6.9002 41.8731 7.7502C41.8731 8.1752 42.2019 8.49395 42.9692 8.91895L44.5038 9.55644C46.6961 10.4064 47.6827 11.6814 47.6827 13.3814C47.7139 13.9488 47.588 14.5139 47.3182 15.0183C47.0484 15.5227 46.6444 15.948 46.1481 16.2502C45.2711 16.7814 44.175 17.1002 42.8596 17.1002C41.9827 17.1002 41.325 17.1002 40.6673 16.8877C40.0172 16.6682 39.3927 16.3833 38.8038 16.0377ZM48.2308 16.0377L49.3269 13.8064C50.0942 14.4439 51.0807 14.8689 52.1769 14.8689C53.2731 14.8689 53.9308 14.3377 53.9308 13.5939C53.9308 13.0627 53.6019 12.5314 53.0538 12.1064L51.4096 11.3627C49.2173 10.4064 48.1211 9.2377 48.1211 7.64395C48.1211 6.4752 48.6692 5.51895 49.5461 4.9877C50.3134 4.45645 51.4096 4.1377 52.6154 4.1377C53.9307 4.1377 55.1365 4.45645 56.2327 5.09395L55.4654 7.21895C54.8077 6.9002 53.9307 6.4752 52.6154 6.4752C51.5192 6.4752 51.0807 6.9002 51.0807 7.7502C51.0807 8.1752 51.4096 8.49395 52.1769 8.91895L53.8211 9.55644C55.9038 10.4064 56.8904 11.6814 56.8904 13.3814C56.9216 13.9488 56.7957 14.5139 56.5259 15.0183C56.2561 15.5227 55.8521 15.948 55.3558 16.2502C54.4788 16.7814 53.3827 17.1002 52.0673 17.1002C51.1904 17.1002 50.5327 17.1002 49.9846 16.8877C49.3723 16.6615 48.7848 16.3768 48.2308 16.0377Z" fill="#231F20"/>
</g>
<defs>
<clipPath id="clip0_230_1485">
<rect width="57" height="17" fill="white" transform="translate(0 0.100098)"/>
</clipPath>
</defs>
</svg>
