<svg width="94" height="15" viewBox="0 0 94 15" fill="none" xmlns="http://www.w3.org/2000/svg">
<g clip-path="url(#clip0_230_1451)">
<path fill-rule="evenodd" clip-rule="evenodd" d="M12.925 5.17H8.225V0.5875C8.22777 0.450057 8.18226 0.315993 8.09638 0.208646C8.0105 0.101299 7.8897 0.0274663 7.755 0L5.7575 0C5.405 0 5.17 0.235 5.17 0.5875V5.17H0.5875C0.235 5.17 0 5.405 0 5.7575V7.755C0 8.1075 0.235 8.3425 0.5875 8.3425H5.17V12.925C5.17 13.2775 5.405 13.5125 5.7575 13.5125H7.755C8.1075 13.5125 8.3425 13.2775 8.3425 12.925V8.225H12.8075C13.2775 8.225 13.395 7.99 13.395 7.6375V5.7575C13.395 5.60169 13.3331 5.45225 13.2229 5.34207C13.1127 5.2319 12.9633 5.17 12.8075 5.17H12.925Z" fill="#FFD420"/>
<path fill-rule="evenodd" clip-rule="evenodd" d="M21.1499 9.98754C21.1499 10.9275 20.4449 11.6325 19.6224 11.6325C19.4116 11.6332 19.2028 11.5901 19.0094 11.5061C18.816 11.4221 18.6421 11.299 18.4986 11.1444C18.3551 10.9899 18.2451 10.8073 18.1757 10.6082C18.1062 10.4091 18.0787 10.1978 18.0949 9.98754V7.75504C18.0949 6.93254 18.6824 6.22754 19.6224 6.22754C20.0276 6.22754 20.4161 6.38847 20.7025 6.67493C20.989 6.96139 21.1499 7.34992 21.1499 7.75504V10.105V9.98754ZM23.4999 9.98754V7.75504C23.5322 7.27275 23.4649 6.78898 23.3022 6.33381C23.1395 5.87863 22.885 5.46177 22.5544 5.10914C22.2238 4.7565 21.8242 4.47563 21.3805 4.28397C20.9367 4.09231 20.4583 3.99396 19.9749 3.99504C19.0349 3.99504 18.4474 4.46504 18.2124 4.46504L18.0949 4.23004V0.587539L17.8599 0.352539H15.8624C15.7449 0.352539 15.6274 0.352539 15.6274 0.587539V13.5125C15.6274 13.7475 15.6274 13.865 15.8624 13.865H17.6249C17.9774 13.865 17.8599 13.395 17.9774 13.395C18.3299 13.395 18.7999 13.865 19.7399 13.865C21.9724 13.865 23.6174 12.3375 23.6174 9.98754H23.4999ZM29.8449 10.2225C29.8449 11.1625 29.1399 11.75 28.3174 11.75C27.3774 11.75 26.7899 11.1625 26.7899 10.2225V7.63754C26.7899 6.69754 27.3774 6.11004 28.3174 6.11004C29.1399 6.11004 29.8449 6.69754 29.8449 7.63754V10.2225ZM32.1949 10.2225V7.63754C32.1949 5.28754 30.6674 3.87754 28.3174 3.87754C25.9674 3.87754 24.3224 5.28754 24.3224 7.63754V10.2225C24.3224 12.5725 25.8499 13.9825 28.3174 13.9825C30.6674 13.9825 32.3124 12.5725 32.3124 10.2225H32.1949ZM41.1249 13.7475H39.0099L38.8924 13.63V7.75504C38.8924 7.34992 38.7315 6.96139 38.445 6.67493C38.1586 6.38847 37.7701 6.22754 37.3649 6.22754C36.4249 6.22754 35.8374 6.93254 35.8374 7.75504V13.63C35.8374 13.7475 35.8374 13.865 35.6024 13.865H33.6049C33.4874 13.865 33.3699 13.865 33.3699 13.63V4.23004C33.3699 4.11254 33.3699 3.99504 33.6049 3.99504H35.2499C35.6024 3.99504 35.4849 4.46504 35.6024 4.46504C35.9549 4.46504 36.4249 3.99504 37.3649 3.99504C39.5974 3.99504 41.2424 5.52254 41.2424 7.75504V13.63L41.0074 13.865L41.1249 13.7475ZM50.1724 13.7475H48.4099C48.0574 13.7475 48.1749 13.395 48.0574 13.395C47.8224 13.395 47.2349 13.865 46.2949 13.865C45.7864 13.8825 45.2798 13.7933 44.8078 13.603C44.3359 13.4128 43.909 13.1257 43.5548 12.7604C43.2005 12.3951 42.9267 11.9596 42.7511 11.482C42.5754 11.0044 42.5018 10.4953 42.5349 9.98754V4.23004L42.6524 3.99504H44.7674C44.8298 3.99504 44.8895 4.0198 44.9336 4.06387C44.9777 4.10794 45.0024 4.16771 45.0024 4.23004V10.105C45.0024 10.9275 45.5899 11.6325 46.4124 11.6325C46.6233 11.6332 46.832 11.5901 47.0255 11.5061C47.2189 11.4221 47.3928 11.299 47.5363 11.1444C47.6798 10.9899 47.7897 10.8073 47.8592 10.6082C47.9287 10.4091 47.9562 10.1978 47.9399 9.98754V4.23004L48.1749 3.99504H50.1724C50.2899 3.99504 50.4074 3.99504 50.4074 4.23004V13.63C50.4074 13.7475 50.4074 13.865 50.1724 13.865V13.7475ZM58.1624 4.70004C58.9849 5.28754 59.4549 6.11004 59.4549 6.46254V6.58004L57.5749 7.40254H57.3399C56.8699 6.69754 56.6349 6.22754 55.8124 6.22754H55.1074C54.4024 6.22754 53.9324 6.34504 53.9324 6.93254C53.9324 7.75504 55.1074 7.63754 56.8699 8.10754C58.6324 8.57754 59.4549 9.28254 59.4549 10.81C59.4549 12.8075 58.0449 14.1 55.8124 14.1H55.1074C53.9324 14.1 52.9924 13.865 52.4049 13.16C51.6999 12.455 51.4649 11.8675 51.4649 11.6325L51.5824 11.515L53.3449 10.575C53.4624 10.575 53.5799 10.575 53.5799 10.81C54.0499 11.515 54.2849 11.985 55.1074 11.985H55.8124C56.5174 11.985 56.9874 11.6325 56.9874 11.045C56.9874 10.2225 55.8124 10.34 54.0499 9.87004C52.4049 9.51754 51.5824 8.69504 51.5824 7.28504C51.5824 5.28754 52.9924 3.99504 55.1074 3.99504H55.8124C56.7524 3.99504 57.5749 4.23004 58.1624 4.70004Z" fill="#8CC63F"/>
<mask id="mask0_230_1451" style="mask-type:luminance" maskUnits="userSpaceOnUse" x="62" y="3" width="9" height="12">
<path fill-rule="evenodd" clip-rule="evenodd" d="M62.6274 3.87744H70.4999V14.0999H62.6274V3.87744Z" fill="white"/>
</mask>
<g mask="url(#mask0_230_1451)">
<path fill-rule="evenodd" clip-rule="evenodd" d="M70.2649 11.3974L68.5024 10.4574H68.3849L68.0324 10.8099C67.6799 11.5149 67.3274 11.8674 66.6224 11.8674C66.2173 11.8674 65.8288 11.7065 65.5423 11.42C65.2559 11.1336 65.0949 10.7451 65.0949 10.3399V7.63744C65.0949 7.23232 65.2559 6.8438 65.5423 6.55734C65.8288 6.27087 66.2173 6.10994 66.6224 6.10994C67.3274 6.10994 67.7974 6.46244 68.0324 7.16744L68.3849 7.51994L70.2649 6.57994L70.4999 6.34494C70.4999 6.10994 69.9124 5.16994 69.0899 4.58244C68.3849 4.11244 67.6799 3.87744 66.7399 3.87744C64.2724 3.87744 62.6274 5.40494 62.6274 7.63744V10.3399C62.6274 12.6899 64.2724 14.0999 66.6224 14.0999C67.7974 14.0999 68.7374 13.7474 69.4424 13.1599C70.1474 12.3374 70.4999 11.7499 70.4999 11.5149L70.2649 11.3974Z" fill="#8CC63F"/>
</g>
<path fill-rule="evenodd" clip-rule="evenodd" d="M78.725 13.6302V7.63772C78.725 5.28771 77.1975 3.87771 74.8475 3.87771C73.6725 3.87771 72.7325 4.23021 72.145 4.81771C71.3225 5.52272 70.97 6.22772 70.97 6.34522L71.205 6.46272L72.9675 7.40272H73.085L73.6725 6.81522C73.9075 6.34522 74.3775 6.11021 74.8475 6.11021C75.67 6.11021 76.2575 6.69772 76.375 7.52022V7.75522C76.375 7.99022 76.375 7.99022 76.14 7.99022H74.1425C72.38 7.99022 71.0875 9.16522 71.0875 10.9277C71.0875 12.6902 72.2625 13.8652 74.1425 13.8652H74.965C75.67 13.8652 76.14 13.5127 76.375 13.5127C76.61 13.5127 76.375 13.8652 76.7275 13.8652H78.725C78.8425 13.8652 78.96 13.8652 78.96 13.6302H78.725ZM76.375 10.1052V10.4577C76.0225 11.2802 75.5525 11.6327 74.965 11.6327H74.025C73.6725 11.6327 73.4375 11.3977 73.4375 11.0452V10.5752C73.4375 10.2227 73.6725 9.98772 74.025 9.98772H76.375V10.1052ZM85.54 6.58021V4.46521C85.54 4.23021 85.1875 4.11272 84.365 4.11272C83.7775 4.11272 83.3075 4.34771 82.72 4.70021L82.485 4.58272V4.23021L82.25 4.11272H80.37L80.2525 4.34772V13.7477L80.37 13.8652H82.3675C82.6025 13.8652 82.6025 13.8652 82.6025 13.6302V7.75522C82.6025 7.05021 83.3075 6.34522 84.13 6.34522C84.7175 6.34522 85.1875 6.81522 85.4225 6.81522L85.54 6.58021ZM94 13.6302V0.705215C94 0.642889 93.9752 0.583116 93.9311 0.539045C93.8871 0.494974 93.8273 0.470215 93.765 0.470215H91.7675L91.5325 0.587715V4.23021L91.415 4.46521C91.18 4.46521 90.5925 4.11272 89.6525 4.11272C89.1741 4.1279 88.7033 4.23723 88.2672 4.43445C87.831 4.63168 87.4381 4.91293 87.1107 5.26213C86.7833 5.61133 86.528 6.02163 86.3593 6.46957C86.1906 6.91751 86.1118 7.39431 86.1275 7.87271V10.1052C86.1275 12.4552 87.655 13.8652 89.8875 13.8652C90.8275 13.8652 91.2975 13.5127 91.65 13.5127C91.7675 13.5127 91.65 13.8652 92.0025 13.8652H93.765C93.8825 13.8652 94 13.8652 94 13.6302ZM91.65 10.1052C91.65 10.9277 90.945 11.6327 90.005 11.6327C89.8044 11.6327 89.6057 11.5932 89.4204 11.5164C89.2351 11.4397 89.0667 11.3272 88.9249 11.1853C88.783 11.0435 88.6705 10.8751 88.5937 10.6898C88.517 10.5044 88.4775 10.3058 88.4775 10.1052V7.75522C88.4775 7.05021 89.1825 6.34522 90.005 6.34522C90.2152 6.32899 90.4266 6.35648 90.6257 6.42595C90.8248 6.49541 91.0073 6.60535 91.1619 6.74885C91.3164 6.89234 91.4395 7.06627 91.5235 7.25969C91.6075 7.45312 91.6506 7.66184 91.65 7.87271V10.1052Z" fill="#8CC63F"/>
</g>
<defs>
<clipPath id="clip0_230_1451">
<rect width="94" height="14.1" fill="white"/>
</clipPath>
</defs>
</svg>
