<svg width="76" height="14" viewBox="0 0 76 14" fill="none" xmlns="http://www.w3.org/2000/svg">
<g clip-path="url(#clip0_230_1483)">
<path fill-rule="evenodd" clip-rule="evenodd" d="M43.1722 0.316764V0.100098H33.6722V12.7751H35.6778V7.35843H40.1111V5.51676H35.5722V1.94176H41.6944C42.75 1.94176 43.0667 1.0751 43.0667 0.316764H43.1722ZM75.3667 5.3001C74.6633 4.65954 73.7718 4.27828 72.8333 4.21676C71.9889 4.21676 71.3556 4.86676 71.3556 5.51676C71.3556 6.16676 71.7778 6.49176 72.4111 6.81676L73.9944 7.35843C74.7333 7.68343 75.2611 8.00843 75.5778 8.44176C75.8944 8.98343 76 9.5251 76 10.0668C76.0117 10.4681 75.9427 10.8675 75.7974 11.2403C75.6522 11.613 75.4337 11.9511 75.1556 12.2334C74.5222 12.7751 73.5722 13.1001 72.5167 13.1001C71.25 13.1001 70.1944 12.6668 69.2444 11.6918L70.3 10.3918C70.9333 11.1501 71.7778 11.4751 72.6222 11.4751C73.6778 11.4751 74.3111 10.9334 74.3111 10.1751C74.3111 9.63343 73.9944 9.2001 73.2556 8.8751L71.6722 8.33343C70.9333 8.00843 70.5111 7.68343 70.1944 7.2501C69.7722 6.81676 69.6667 6.16676 69.6667 5.51676C69.665 5.14892 69.7394 4.7849 69.885 4.44875C70.0305 4.11261 70.244 3.81199 70.5111 3.56676C71.1444 3.0251 71.9889 2.80843 72.8333 2.80843C73.4909 2.79904 74.1415 2.94743 74.7333 3.24176C74.9445 3.24176 75.1556 3.45843 75.2611 3.56676C75.7889 4.0001 75.8944 4.6501 75.3667 5.3001ZM2.53333 12.6668C3.0676 12.8992 3.64195 13.0189 4.22222 13.0189C4.8025 13.0189 5.37685 12.8992 5.91111 12.6668C6.43889 12.5584 6.75556 12.2334 7.17778 11.9084C7.6 11.5834 7.81111 11.1501 8.02222 10.7168L8.33889 9.2001H8.12778C7.70556 9.2001 7.28333 9.2001 7.07222 9.5251C6.86111 9.63343 6.86111 9.8501 6.75556 9.95843L6.22778 10.8251C5.7 11.3668 5.17222 11.5834 4.43333 11.5834C3.90556 11.5834 3.37778 11.4751 2.95556 11.2584C2.64394 11.0359 2.39023 10.7383 2.21667 10.3918C1.98016 10.0652 1.80151 9.69853 1.68889 9.30843C1.63919 8.84037 1.63919 8.36816 1.68889 7.9001V6.6001C1.80536 6.21157 1.9837 5.84551 2.21667 5.51676L2.95556 4.6501C3.27222 4.43343 3.8 4.21676 4.43333 4.21676C4.72678 4.20614 5.01916 4.25846 5.29179 4.37039C5.56442 4.48231 5.81131 4.65137 6.01667 4.86676C6.43889 5.3001 6.65 5.73343 6.75556 6.16676H8.33889L7.91667 4.75843C7.70681 4.34419 7.41993 3.97615 7.07222 3.6751L5.80556 3.0251C5.3694 2.84959 4.90073 2.77559 4.43333 2.80843C3.69444 2.80843 3.16667 2.91676 2.53333 3.24176C2.00556 3.45843 1.47778 3.89176 1.16111 4.3251L0.316667 5.9501C0 6.49176 0 7.2501 0 8.00843L0.316667 9.8501C0.527778 10.5001 0.844444 10.9334 1.16111 11.4751C1.53623 11.9344 2.00454 12.3041 2.53333 12.5584V12.6668ZM11.1889 2.91676H12.8778L16.2556 12.6668H15.4111C14.9889 12.6668 14.4611 12.5584 14.3556 12.0168L13.6167 10.0668H10.45L9.5 12.7751H7.91667L11.1889 3.0251V2.91676ZM10.9778 8.5501L12.0333 5.3001L13.0889 8.5501H10.9778ZM19.7389 8.5501L20.1611 8.65843L22.0611 12.2334C22.3778 12.7751 22.8 12.9918 23.1167 12.9918H23.2222L24.2778 12.7751L22.1667 9.09176L21.85 8.44176C22.3778 8.33343 22.6944 8.00843 23.0111 7.68343C23.4333 7.14176 23.5389 6.49176 23.5389 5.73343C23.5389 5.19176 23.5389 4.6501 23.2222 4.21676C22.9056 3.78343 22.5889 3.45843 22.1667 3.24176L20.2667 3.0251H16.5722V12.7751H18.1556V4.43343H20.9C21.3222 4.43343 21.5333 4.54176 21.7444 4.86676C21.9556 5.08343 21.9556 5.40843 21.9556 5.73343L21.85 6.6001C21.7739 6.74112 21.668 6.86293 21.5402 6.95664C21.4124 7.05035 21.2658 7.1136 21.1111 7.14176H18.6833C18.6833 8.00843 19 8.65843 19.7389 8.65843V8.5501ZM28.3944 4.43343H25.7556C25.1222 4.43343 24.7 3.78343 24.7 3.0251H28.7111C29.45 3.0251 30.0833 3.13343 30.6111 3.45843C31.0645 3.68999 31.4613 4.02321 31.7722 4.43343C32.1944 4.86676 32.4056 5.40843 32.5111 5.9501L32.7222 7.79176C32.7299 8.5622 32.6231 9.32934 32.4056 10.0668C32.1944 10.7168 31.9833 11.1501 31.5611 11.5834C31.1389 12.0168 30.8222 12.3418 30.4 12.4501L28.6056 12.7751H24.7V5.08343H26.3889V11.3668H28.2889C28.7111 11.3668 29.3444 11.3668 29.6611 11.1501C30.0833 11.0418 30.2944 10.8251 30.6111 10.5001L31.0333 9.41677C31.3268 8.35436 31.3268 7.22917 31.0333 6.16676L30.4 5.08343C30.1949 4.85001 29.9428 4.66518 29.6611 4.54176H28.6056L28.3944 4.43343ZM68.6111 3.0251H67.1333V9.95843L63.5444 3.78343C63.3333 3.3501 62.9111 3.0251 62.4889 3.0251H61.2222V12.7751H62.8056V5.51676L66.8167 12.3418C67.0278 12.6668 67.3444 12.7751 67.6611 12.7751H68.6111V3.0251ZM50.2444 3.0251H51.7222V12.7751H50.7722C50.4556 12.7751 50.1389 12.6668 49.9278 12.3418C49.9278 12.1251 45.9167 5.51676 45.9167 5.51676V12.7751H44.4389V3.0251H45.4944C46.0222 3.0251 46.4444 3.3501 46.7611 3.78343L50.2444 9.8501V3.0251ZM43.1722 12.7751V3.0251H41.5889V11.2584C41.5889 12.3418 42.3278 12.7751 43.1722 12.7751ZM57.4222 3.0251H55.6278L52.3556 12.7751H54.0444L54.8889 10.1751H58.0556L58.6889 12.1251C58.9 12.6668 59.4278 12.8834 59.9556 12.8834H60.6944L57.4222 3.13343V3.0251ZM56.4722 5.19176L55.4167 8.65843H57.5278L56.4722 5.19176Z" fill="url(#paint0_linear_230_1483)"/>
</g>
<defs>
<linearGradient id="paint0_linear_230_1483" x1="0" y1="13.1001" x2="76" y2="13.1001" gradientUnits="userSpaceOnUse">
<stop stop-color="#1D2457"/>
<stop offset="1" stop-color="#2681C0"/>
</linearGradient>
<clipPath id="clip0_230_1483">
<rect width="76" height="13" fill="white" transform="translate(0 0.100098)"/>
</clipPath>
</defs>
</svg>
