<svg width="50" height="32" viewBox="0 0 50 32" fill="none" xmlns="http://www.w3.org/2000/svg">
<g clip-path="url(#clip0_230_1491)">
<mask id="mask0_230_1491" style="mask-type:luminance" maskUnits="userSpaceOnUse" x="0" y="0" width="50" height="32">
<path d="M45.3356 0.100098H4.55713C2.34799 0.100098 0.557129 1.89096 0.557129 4.1001V27.0556C0.557129 29.2647 2.34799 31.0556 4.55713 31.0556H45.3356C47.5448 31.0556 49.3356 29.2647 49.3356 27.0556V4.1001C49.3356 1.89096 47.5448 0.100098 45.3356 0.100098Z" fill="white"/>
</mask>
<g mask="url(#mask0_230_1491)">
<path d="M45.3356 0.100098H4.55713C2.34799 0.100098 0.557129 1.89096 0.557129 4.1001V27.0556C0.557129 29.2647 2.34799 31.0556 4.55713 31.0556H45.3356C47.5448 31.0556 49.3356 29.2647 49.3356 27.0556V4.1001C49.3356 1.89096 47.5448 0.100098 45.3356 0.100098Z" fill="#CDCDCD"/>
<path d="M29.0113 6.17285C27.9019 6.17285 26.8035 6.39275 25.7786 6.81999C24.7537 7.24724 23.8225 7.87345 23.0381 8.66289C22.2537 9.45233 21.6315 10.3895 21.207 11.421C20.7825 12.4524 20.564 13.5579 20.564 14.6744C20.564 15.7908 20.7825 16.8963 21.207 17.9278C21.6315 18.9592 22.2537 19.8964 23.0381 20.6859C23.8225 21.4753 24.7537 22.1015 25.7786 22.5288C26.8035 22.956 27.9019 23.1759 29.0113 23.1759C30.1206 23.1759 31.219 22.956 32.2439 22.5288C33.2688 22.1015 34.2 21.4753 34.9844 20.6859C35.7688 19.8964 36.391 18.9592 36.8155 17.9278C37.2401 16.8963 37.4586 15.7908 37.4586 14.6744C37.4586 13.5579 37.2401 12.4524 36.8155 11.421C36.391 10.3895 35.7688 9.45233 34.9844 8.66289C34.2 7.87345 33.2688 7.24724 32.2439 6.81999C31.219 6.39275 30.1206 6.17285 29.0113 6.17285Z" fill="#009ADF"/>
<path d="M19.357 6.17285C18.2476 6.17285 17.1492 6.39275 16.1243 6.81999C15.0995 7.24724 14.1682 7.87345 13.3838 8.66289C12.5994 9.45233 11.9772 10.3895 11.5527 11.421C11.1282 12.4524 10.9097 13.5579 10.9097 14.6744C10.9097 15.7908 11.1282 16.8963 11.5527 17.9278C11.9772 18.9592 12.5994 19.8964 13.3838 20.6859C14.1682 21.4753 15.0995 22.1015 16.1243 22.5288C17.1492 22.956 18.2476 23.1759 19.357 23.1759C20.4663 23.1759 21.5647 22.956 22.5896 22.5288C23.6145 22.1015 24.5457 21.4753 25.3301 20.6859C26.1145 19.8964 26.7367 18.9592 27.1612 17.9278C27.5858 16.8963 27.8043 15.7908 27.8043 14.6744C27.8043 13.5579 27.5858 12.4524 27.1612 11.421C26.7367 10.3895 26.1145 9.45233 25.3301 8.66289C24.5457 7.87345 23.6145 7.24724 22.5896 6.81999C21.5647 6.39275 20.4663 6.17285 19.357 6.17285Z" fill="#D50000"/>
<path d="M20.564 14.6744C20.564 17.5619 21.9976 20.1093 24.1842 21.6456C26.3709 20.1093 27.8045 17.5619 27.8045 14.6744C27.8045 11.7869 26.3709 9.23946 24.1842 7.70312C21.9976 9.23946 20.564 11.7869 20.564 14.6744Z" fill="#6C6BBE"/>
</g>
</g>
<defs>
<clipPath id="clip0_230_1491">
<rect width="50" height="31" fill="white" transform="translate(0 0.100098)"/>
</clipPath>
</defs>
</svg>
