<svg width="50" height="32" viewBox="0 0 50 32" fill="none" xmlns="http://www.w3.org/2000/svg">
<g clip-path="url(#clip0_230_1500)">
<mask id="mask0_230_1500" style="mask-type:luminance" maskUnits="userSpaceOnUse" x="0" y="0" width="50" height="32">
<path d="M45.5568 0.100098H4.77832C2.56918 0.100098 0.77832 1.89096 0.77832 4.1001V27.0556C0.77832 29.2647 2.56918 31.0556 4.77832 31.0556H45.5568C47.766 31.0556 49.5568 29.2647 49.5568 27.0556V4.1001C49.5568 1.89096 47.766 0.100098 45.5568 0.100098Z" fill="white"/>
</mask>
<g mask="url(#mask0_230_1500)">
<path d="M45.5568 0.100098H4.77832C2.56918 0.100098 0.77832 1.89096 0.77832 4.1001V27.0556C0.77832 29.2647 2.56918 31.0556 4.77832 31.0556H45.5568C47.766 31.0556 49.5568 29.2647 49.5568 27.0556V4.1001C49.5568 1.89096 47.766 0.100098 45.5568 0.100098Z" fill="#CDCDCD"/>
<path d="M29.2325 6.17285C28.1231 6.17285 27.0247 6.39275 25.9998 6.81999C24.9749 7.24724 24.0437 7.87345 23.2593 8.66289C22.4749 9.45233 21.8527 10.3895 21.4282 11.421C21.0037 12.4524 20.7852 13.5579 20.7852 14.6744C20.7852 15.7908 21.0037 16.8963 21.4282 17.9278C21.8527 18.9592 22.4749 19.8964 23.2593 20.6859C24.0437 21.4753 24.9749 22.1015 25.9998 22.5288C27.0247 22.956 28.1231 23.1759 29.2325 23.1759C30.3418 23.1759 31.4402 22.956 32.4651 22.5288C33.49 22.1015 34.4212 21.4753 35.2056 20.6859C35.99 19.8964 36.6122 18.9592 37.0367 17.9278C37.4613 16.8963 37.6797 15.7908 37.6797 14.6744C37.6797 13.5579 37.4613 12.4524 37.0367 11.421C36.6122 10.3895 35.99 9.45233 35.2056 8.66289C34.4212 7.87345 33.49 7.24724 32.4651 6.81999C31.4402 6.39275 30.3418 6.17285 29.2325 6.17285Z" fill="#FF9800"/>
<path d="M19.5782 6.17285C18.4688 6.17285 17.3704 6.39275 16.3455 6.81999C15.3206 7.24724 14.3894 7.87345 13.605 8.66289C12.8206 9.45233 12.1984 10.3895 11.7739 11.421C11.3494 12.4524 11.1309 13.5579 11.1309 14.6744C11.1309 15.7908 11.3494 16.8963 11.7739 17.9278C12.1984 18.9592 12.8206 19.8964 13.605 20.6859C14.3894 21.4753 15.3206 22.1015 16.3455 22.5288C17.3704 22.956 18.4688 23.1759 19.5782 23.1759C20.6875 23.1759 21.7859 22.956 22.8108 22.5288C23.8357 22.1015 24.7669 21.4753 25.5513 20.6859C26.3357 19.8964 26.9579 18.9592 27.3824 17.9278C27.807 16.8963 28.0254 15.7908 28.0254 14.6744C28.0254 13.5579 27.807 12.4524 27.3824 11.421C26.9579 10.3895 26.3357 9.45233 25.5513 8.66289C24.7669 7.87345 23.8357 7.24724 22.8108 6.81999C21.7859 6.39275 20.6875 6.17285 19.5782 6.17285Z" fill="#D50000"/>
<path d="M20.7852 14.6744C20.7852 17.5619 22.2188 20.1093 24.4054 21.6456C26.5921 20.1093 28.0257 17.5619 28.0257 14.6744C28.0257 11.7869 26.5921 9.23946 24.4054 7.70312C22.2188 9.23946 20.7852 11.7869 20.7852 14.6744Z" fill="#FF3D00"/>
</g>
</g>
<defs>
<clipPath id="clip0_230_1500">
<rect width="50" height="31" fill="white" transform="translate(0 0.100098)"/>
</clipPath>
</defs>
</svg>
