<svg width="78" height="22" viewBox="0 0 78 22" fill="none" xmlns="http://www.w3.org/2000/svg">
<path fill-rule="evenodd" clip-rule="evenodd" d="M62.7774 16.546L64.0355 8.47868C64.1684 7.49229 64.6104 6.57816 65.2935 5.87632C66.1742 5.22573 67.1806 4.83538 68.4387 4.83538C69.6968 4.83538 70.3258 5.09562 70.7032 5.35585C70.9787 5.48903 71.2332 5.6645 71.4581 5.87632C71.4581 5.87632 71.8355 5.61609 72.4645 5.22574C73.1789 4.91223 73.955 4.77845 74.729 4.83538C75.7355 4.83538 76.7419 5.22573 77.2452 5.61609C77.7484 6.00644 77.7484 6.39679 78 7.1775V8.47868L76.7419 16.546H73.9742L74.9806 8.99915C74.9806 8.6088 75.2323 7.69797 74.9806 7.43774C74.729 7.1775 74.1 6.91726 73.7226 6.91726C73.3452 6.91726 72.5903 7.04738 72.4645 8.34856L71.2065 16.546H68.3129L69.4452 8.73891C69.4452 8.34856 69.4452 7.43774 69.0677 7.1775C68.6903 6.91727 67.6839 6.91726 67.3064 7.43774C66.929 7.95821 66.8032 8.21844 66.6774 8.99915L65.671 16.546H62.7774ZM57.6194 5.22574L56.3613 13.1629C56.3613 13.6834 56.3613 14.5942 56.8645 14.8544C57.3677 15.1147 58.1226 15.1147 58.5 14.8544C58.8774 14.5942 59.129 14.2039 59.3806 13.1629L60.3871 5.35585H63.1548L62.1484 13.0328C62.0226 13.8135 61.6452 15.2448 60.8903 15.8954C60.1355 16.546 59.0032 17.0664 56.7387 17.0664C54.4742 17.0664 53.5935 15.6352 53.4677 14.7243C53.3419 13.8135 53.4677 12.9027 53.7194 11.7316L54.6 5.22574H57.6194ZM37.9935 16.546L39.2516 8.47868C39.3846 7.49229 39.8265 6.57816 40.5097 5.87632C41.3903 5.35585 42.3968 4.83538 43.6548 4.83538C44.9129 4.83538 45.5419 5.09562 46.0452 5.35585L46.6742 5.87632L47.6806 5.22574C48.395 4.91223 49.1711 4.77845 49.9452 4.83538C50.9516 4.83538 51.9581 5.22573 52.4613 5.61609C52.9645 6.00644 53.0903 6.39679 53.2161 7.1775V8.47868L51.9581 16.546H49.1903L50.1968 8.99915C50.1968 8.6088 50.4484 7.69797 50.1968 7.43774C49.9452 7.1775 49.3161 6.91726 48.9387 6.91726C48.5613 6.91726 47.8065 7.04738 47.6806 8.34856L46.4226 16.546H43.529L44.7871 8.73891C44.7871 8.34856 44.7871 7.43774 44.2839 7.1775C43.7806 6.91727 42.9 6.91726 42.5226 7.43774C42.1452 7.95821 42.0194 8.21844 41.8935 8.99915L40.8871 16.546H37.9935ZM24.4065 15.1147L27.8032 10.3003C27.8032 10.1702 27.929 9.90997 27.8032 9.77985L25.6645 5.87632C25.5387 5.61609 25.4129 5.22574 25.6645 4.31491C25.9161 3.40409 26.2935 3.40409 26.4194 3.27397C26.5452 3.14385 26.9226 3.27397 27.1742 3.79444L29.4387 7.43774H29.8161L34.2194 1.06197C34.471 0.801732 34.9742 0.281261 35.4774 0.151143C35.9806 0.0210257 36.3581 0.151143 36.7355 0.411379C37.1129 0.671614 37.3645 1.19209 37.2387 1.71256C37.1129 2.23303 36.8613 2.88362 36.3581 3.5342L31.4516 9.77985C31.4516 9.77985 31.3258 10.0401 31.4516 10.3003L31.7032 10.9509L34.471 15.1147L35.8548 5.35585H38.6226L36.9871 16.6761H35.2258L36.6097 18.8881L33.9677 21.1001L29.3129 12.9027C29.3129 12.7726 29.3129 12.6424 28.9355 12.9027L25.1613 17.5869L24.2806 15.2448L24.4065 15.1147ZM28.5581 2.49326C28.9355 1.45232 29.8161 0.411379 30.571 0.411379C31.3258 0.411379 31.829 1.3222 31.5774 2.49326C31.3258 3.66432 30.4452 4.70526 29.6903 4.70526C28.9355 4.70526 28.4323 3.79444 28.5581 2.49326ZM17.2355 5.87632C17.2355 5.87632 18.1161 5.22574 20.129 4.9655C22.1419 4.70526 23.0226 4.9655 23.9032 5.74621C24.7839 6.52691 24.9097 7.69797 24.7839 8.47868L23.9032 14.9846L23.1484 15.6352C22.2677 16.2857 21.0097 16.6761 19.5 16.9363C17.9903 17.1966 16.1032 16.546 15.4742 14.8544C14.8452 13.1629 15.0968 10.9509 17.1097 10.0401C19.1226 9.12927 22.1419 8.99915 22.1419 8.99915C22.1419 8.99915 22.3935 8.08833 21.8903 7.69797C21.3871 7.04738 20.7581 7.1775 19.5 7.43774L16.9839 8.21844L17.2355 5.87632ZM21.8903 10.9509H20.8839C20.1497 11.0118 19.4286 11.1872 18.7452 11.4714C18.3693 11.5869 18.0415 11.8288 17.8137 12.1588C17.5858 12.4887 17.4709 12.8879 17.4871 13.293C17.4871 13.9436 17.8645 14.7243 19.1226 14.8544C20.3806 14.9846 21.3871 14.0737 21.3871 14.0737L21.8903 10.9509ZM0 16.546L1.25806 8.47868C1.25806 7.82809 1.76129 6.65703 2.51613 5.87632C3.27097 5.09562 4.40323 4.83538 5.66129 4.83538C6.91935 4.83538 7.54839 5.09562 7.92581 5.35585L8.68064 5.87632L9.6871 5.22574C10.3629 4.93202 11.0937 4.79863 11.8258 4.83538C13.0839 4.83538 13.9645 5.22573 14.3419 5.61609C14.7194 6.00644 14.971 6.39679 15.2226 7.1775V8.47868L13.9645 16.546H11.3226L12.329 8.99915V7.43774C12.0774 7.1775 11.4484 6.91726 11.071 6.91726C10.6935 6.91726 9.93871 7.04738 9.8129 8.34856L8.55484 16.546H5.53548L6.66774 8.73891C6.66774 8.34856 6.66774 7.43774 6.29032 7.1775C5.9129 6.91727 4.90645 6.91726 4.52903 7.43774C4.15161 7.95821 4.02581 8.21844 3.9 8.99915L2.89355 16.546H0Z" fill="#EB008B"/>
</svg>
