<svg width="49" height="32" viewBox="0 0 49 32" fill="none" xmlns="http://www.w3.org/2000/svg">
<g clip-path="url(#clip0_230_1509)">
<path d="M44.7785 0.100098H4C1.79086 0.100098 0 1.89096 0 4.1001V27.0556C0 29.2647 1.79086 31.0556 4 31.0556H44.7785C46.9876 31.0556 48.7785 29.2647 48.7785 27.0556V4.1001C48.7785 1.89096 46.9876 0.100098 44.7785 0.100098Z" fill="#CDCDCD"/>
<path d="M18.7916 9.54167L13.3642 22.5757H9.82178L7.15286 12.1749C6.98851 11.5335 6.84807 11.3001 6.35542 11.0278C5.54846 10.5886 4.22095 10.1766 3.04883 9.9201L3.13081 9.54177H8.8301C9.55698 9.54177 10.2105 10.0297 10.3748 10.8709L11.786 18.4148L15.2717 9.54177L18.7916 9.54167ZM32.6673 18.3182C32.683 14.8801 27.9403 14.6929 27.9744 13.1548C27.9836 12.6853 28.4258 12.1884 29.3941 12.063C29.875 11.9986 31.1983 11.9515 32.6982 12.6444L33.286 9.88177C32.4791 9.587 31.4418 9.30469 30.1525 9.30469C26.8414 9.30469 24.5103 11.0772 24.4907 13.6134C24.469 15.4889 26.1537 16.5355 27.4246 17.1601C28.7295 17.7993 29.1658 18.2073 29.1612 18.7804C29.1527 19.6553 28.1201 20.0376 27.1569 20.0548C25.4722 20.0812 24.495 19.5965 23.7146 19.2307L23.108 22.0884C23.8897 22.4496 25.337 22.7632 26.8348 22.7817C30.3539 22.7816 32.6562 21.028 32.6673 18.3182ZM41.4114 22.5756H44.5107L41.8064 9.54158H38.9452C38.3023 9.54158 37.7604 9.91895 37.5189 10.497L32.4947 22.5755H36.0112L36.7093 20.629H41.0078L41.4114 22.5756ZM37.673 17.9577L39.4372 13.0636L40.4521 17.9577H37.673ZM23.5794 9.54167L20.8074 22.5756H17.4565L20.2292 9.54158L23.5794 9.54167Z" fill="#32369C"/>
</g>
<defs>
<clipPath id="clip0_230_1509">
<rect width="49" height="31" fill="white" transform="translate(0 0.100098)"/>
</clipPath>
</defs>
</svg>
