<svg width="70" height="23" viewBox="0 0 70 23" fill="none" xmlns="http://www.w3.org/2000/svg">
<g clip-path="url(#clip0_230_1462)">
<path fill-rule="evenodd" clip-rule="evenodd" d="M16.8269 12.4749C16.8269 12.4749 16.9615 12.6124 16.8269 12.7499L14.4038 21.6874C14.4217 21.7239 14.4246 21.7661 14.412 21.8048C14.3994 21.8435 14.3722 21.8754 14.3365 21.8937C14.3008 21.9119 14.2595 21.9149 14.2216 21.902C14.1838 21.8891 14.1525 21.8614 14.1346 21.8249H9.82692C9.80646 21.837 9.78324 21.8434 9.75961 21.8434C9.73598 21.8434 9.71277 21.837 9.69231 21.8249L8.61538 17.5624H8.48077L7.26923 21.6874V21.8249H2.42308L0 12.6124L0.134615 12.4749H4.44231L4.57692 12.6124L5.51923 17.1499H5.65385L6.73077 12.4749H10.3654L11.3077 17.0124L12.3846 12.4749H16.8269ZM45.7692 12.6124H49.8077V18.6624H55.8654L56 18.7999V21.6874L55.8654 21.8249H45.7692V12.4749V12.6124ZM69.3269 17.1499C69.3269 15.3624 68.9231 13.5749 67.1731 12.8874C65.9615 12.4749 63.9423 12.3374 62.8654 12.3374L57.2115 12.6124L57.0769 12.7499V21.5499L57.2115 21.8249L62.8654 21.9624C63.9423 21.9624 66.0962 21.9624 67.1731 21.5499C69.0577 20.8624 69.3269 19.0749 69.3269 17.1499ZM61.1154 18.6624V15.7749L63 15.6374C64.8846 15.6374 65.0192 15.9124 65.0192 17.2874C65.0192 18.6624 65.0192 18.9374 63 18.9374H61.25L61.1154 18.6624ZM26.1154 17.2874C26.1154 15.9124 25.7115 15.3624 23.9615 15.3624C22.2115 15.3624 21.6731 15.7749 21.6731 17.2874C21.6731 18.7999 22.0769 19.2124 23.9615 19.2124C25.8462 19.2124 26.1154 18.6624 26.1154 17.2874ZM30.4231 17.2874C30.4231 19.0749 30.1538 20.8624 28.2692 21.5499C27.4615 21.9624 25.9808 22.0999 23.9615 22.0999C21.9423 22.0999 20.3269 21.9624 19.5192 21.5499C17.6346 20.8624 17.3654 19.0749 17.3654 17.1499C17.3654 15.2249 17.6346 13.4374 19.5192 12.7499C20.1923 12.4749 21.8077 12.4749 23.9615 12.4749C26.1154 12.4749 27.4615 12.6124 28.2692 12.8874C30.1538 13.5749 30.4231 15.4999 30.4231 17.2874ZM44.6923 21.5499C43.5811 20.5619 42.4123 19.6436 41.1923 18.7999L41.0577 18.6624H41.1923C42.9423 18.2499 43.8846 16.7374 43.8846 15.6374C43.8846 14.2624 43.6154 13.0249 41.8654 12.6124C40.25 12.1999 31.9038 12.3374 31.9038 12.3374L31.7692 12.6124V21.6874L31.9038 21.8249H35.8077V18.7999C37.115 19.7892 38.373 20.8447 39.5769 21.9624H44.5577V21.8249C44.5577 21.6874 44.6923 21.6874 44.5577 21.5499H44.6923ZM35.8077 16.8749V15.0874H38.7692C39.4423 15.0874 39.7115 15.3624 39.7115 15.9124C39.7115 16.5999 39.4423 16.8749 38.7692 16.8749H35.8077Z" fill="#782A90"/>
<path d="M68.25 0.375H70V1.75H68.25V0.375Z" fill="#1366B2"/>
<path fill-rule="evenodd" clip-rule="evenodd" d="M38.5001 7.9374V8.3499H40.3847V3.6749C40.3847 2.8499 39.7116 2.0249 38.3655 2.0249C37.1539 2.0249 36.2116 2.5749 36.2116 3.6749V4.0874H37.6924V3.6749C37.6924 3.3999 37.6924 3.1249 38.0962 3.1249C38.5001 3.1249 38.3655 3.3999 38.3655 3.6749C38.3655 4.2249 37.827 4.3624 37.2885 4.6374C36.6155 4.9124 35.9424 5.1874 35.9424 6.0124V7.1124C35.9424 7.7999 36.4808 8.4874 37.1539 8.4874C37.827 8.4874 38.0962 8.2124 38.5001 7.9374ZM38.5001 5.1874V6.9749C38.5001 7.3874 38.5001 7.5249 38.2308 7.5249C37.9616 7.5249 37.827 7.3874 37.827 6.9749V6.2874C37.827 5.7374 38.0962 5.5999 38.5001 5.4624V5.1874ZM44.0193 8.3499C45.2308 8.3499 45.3655 7.5249 45.3655 6.6999V3.6749C45.3655 2.9874 45.0962 2.1624 44.1539 2.1624C43.4808 2.1624 43.077 2.2999 42.8078 2.8499V2.2999H41.0578V9.7249H42.8078V7.7999C43.077 8.2124 43.4808 8.3499 44.1539 8.3499H44.0193ZM43.2116 3.3999C43.4808 3.3999 43.6155 3.5374 43.6155 3.8124V6.5624C43.6155 6.9749 43.4808 7.1124 43.2116 7.1124C42.9424 7.1124 42.8078 6.9749 42.8078 6.6999V3.9499C42.8078 3.5374 42.9424 3.3999 43.2116 3.3999Z" fill="#1366B2"/>
<path d="M46.3076 2.30029H47.923V8.35029H46.3076V2.30029ZM52.0961 8.21279L51.0192 5.46279L50.7499 5.87529V8.35029H48.7307V0.237793H50.7499V2.85029L51.9615 0.237793H53.8461L52.0961 3.67529L53.8461 8.35029H51.9615L52.0961 8.21279ZM57.7499 3.95029C57.2115 3.67529 56.1345 3.67529 56.1345 4.63779V8.35029H54.5192V2.30029H55.9999V2.85029C56.673 2.16279 57.3461 2.16279 57.7499 2.16279V3.95029Z" fill="#1366B2"/>
<path fill-rule="evenodd" clip-rule="evenodd" d="M60.3078 8.35019C61.654 8.35019 62.4617 7.9377 62.4617 6.8377V6.1502H60.7117V6.97519C60.7117 7.2502 60.7117 7.3877 60.3078 7.3877C59.904 7.3877 60.0386 7.2502 60.0386 6.97519V5.6002H62.4617V3.9502C62.4617 2.5752 61.5193 2.1627 60.3078 2.1627C58.9617 2.1627 58.2886 2.8502 58.2886 3.9502V6.7002C58.2886 8.0752 59.2309 8.48769 60.3078 8.48769V8.35019ZM60.3078 3.2627C60.577 3.2627 60.7117 3.2627 60.7117 3.5377V4.3627H59.904V3.5377C59.904 3.4002 59.904 3.2627 60.3078 3.2627ZM65.6924 7.66269V8.2127H67.4424V0.512695H65.6924V2.7127C65.5578 2.4377 65.0193 2.1627 64.4809 2.1627C63.5386 2.1627 63.1347 2.9877 63.1347 3.9502V6.97519C63.1347 7.66269 63.404 8.48769 64.4809 8.48769C65.154 8.48769 65.6924 8.35019 65.827 7.80019L65.6924 7.66269ZM65.4232 3.4002C65.6924 3.4002 65.827 3.4002 65.827 3.8127V6.56269C65.827 6.97519 65.5578 7.11269 65.4232 7.11269C65.2886 7.11269 65.0193 6.9752 65.0193 6.7002V3.9502C65.0193 3.5377 65.2886 3.4002 65.4232 3.4002Z" fill="#1366B2"/>
<path d="M68.2499 2.3H69.9999V8.35H68.2499V2.3ZM34.9999 4.775V8.35H33.1153V4.775L31.2307 0.375H33.2499L33.923 2.575L34.4615 0.375H36.4807L34.9999 4.775Z" fill="#1366B2"/>
<path fill-rule="evenodd" clip-rule="evenodd" d="M25.9808 0.100098C26.3847 0.100098 29.4808 0.237598 30.5577 3.2626C30.9616 4.2251 30.827 5.6001 30.2885 6.7001C29.75 7.8001 28.4039 8.7626 26.9231 8.6251C25.8462 8.6251 24.7693 7.9376 24.2308 6.9751C23.9616 6.0126 23.9616 5.0501 24.9039 4.2251V5.0501C25.3077 5.4626 25.8462 5.6001 26.3847 5.3251C26.9231 5.0501 27.0577 4.9126 27.0577 4.3626C27.0577 4.0876 26.6539 3.8126 26.3847 3.6751C25.7116 3.4001 25.0385 3.5376 24.5 4.0876C23.9616 4.7751 23.6923 5.7376 23.4231 6.5626L23.0193 7.6626C22.75 8.4876 22.2116 9.3126 21.1347 9.5876H20.327C19.25 9.3126 18.7116 8.4876 18.4423 7.6626L18.0385 6.5626C17.8871 5.6588 17.5169 4.80801 16.9616 4.0876C16.2885 3.5376 15.75 3.4001 15.077 3.6751C14.8077 3.6751 14.5385 4.0876 14.4039 4.3626C14.4039 4.9126 14.5385 5.1876 15.077 5.3251C15.6154 5.4626 16.1539 5.3251 16.4231 5.0501L16.5577 4.3626C16.9384 4.65962 17.2112 5.07776 17.3331 5.5509C17.455 6.02404 17.419 6.52519 17.2308 6.9751C16.6923 7.9376 15.6154 8.4876 14.5385 8.6251C13.1923 8.6251 11.8462 7.8001 11.1731 6.7001C10.866 6.19124 10.6708 5.62026 10.601 5.02672C10.5313 4.43317 10.5887 3.83124 10.7693 3.2626C11.9808 0.100098 15.077 0.100098 15.4808 0.100098C16.827 0.100098 18.4423 0.512598 19.5193 1.6126L20.5962 2.8501H20.7308L21.9423 1.4751C23.0193 0.512598 24.6347 0.100098 25.9808 0.100098ZM25.9808 6.9751C26.7885 7.3876 27.7308 7.2501 28.4039 6.7001C29.3462 5.7376 29.4808 4.6376 29.2116 3.5376C28.8077 2.1626 27.327 1.6126 26.25 1.4751C24.9039 1.4751 23.0193 2.1626 22.2116 3.5376L21.8077 4.6376H19.7885L19.25 3.5376C18.577 2.1626 16.6923 1.4751 15.3462 1.4751C14.2693 1.4751 12.7885 2.3001 12.3847 3.5376C11.9808 4.6376 12.1154 5.7376 13.0577 6.7001C13.7308 7.2501 14.6731 7.3876 15.3462 7.1126C15.75 6.9751 16.1539 6.5626 16.2885 6.1501C15.6154 6.7001 14.5385 6.9751 13.5962 6.1501C13.5962 6.1501 12.5193 5.3251 13.0577 3.6751C13.327 2.9876 14.4039 2.3001 15.2116 2.3001C16.5577 2.0251 17.6347 2.4376 18.4423 3.5376C18.9808 4.3626 19.25 5.1876 19.5193 6.1501L20.1923 7.8001C20.1923 8.0751 20.4616 8.2126 20.7308 8.2126C21 8.2126 21.2693 8.2126 21.4039 7.8001L21.9423 6.1501C22.2116 5.1876 22.4808 4.3626 23.1539 3.4001C23.9616 2.4376 25.0385 2.0251 26.25 2.3001C27.0577 2.3001 28.1347 2.9876 28.4039 3.6751C28.9423 5.3251 28 6.0126 28 6.0126C26.9231 6.9751 25.8462 6.7001 25.3077 6.1501C25.3077 6.5626 25.7116 6.8376 26.1154 7.1126L25.9808 6.9751Z" fill="#1366B2"/>
</g>
<defs>
<clipPath id="clip0_230_1462">
<rect width="70" height="22" fill="white" transform="translate(0 0.100098)"/>
</clipPath>
</defs>
</svg>
