<svg width="70" height="18" viewBox="0 0 70 18" fill="none" xmlns="http://www.w3.org/2000/svg">
<g clip-path="url(#clip0_230_1471)">
<path fill-rule="evenodd" clip-rule="evenodd" d="M70 16.9831H68.6875C67.7906 16.9831 67.0797 16.7281 66.5875 16.2181C66.15 15.7612 65.9094 15.1556 65.9313 14.5606V10.3531H64.5312L64.9141 8.50432H65.9203V6.54932H68.3047V8.50432H70V10.3531H68.3156V14.4224C68.3156 14.9324 68.5891 15.1874 69.1359 15.1874H70V16.9831ZM7.83125 14.6987C7.9341 14.052 7.97802 13.3978 7.9625 12.7437C7.98438 12.1062 7.94062 11.4474 7.83125 10.8099C7.74033 10.1956 7.44897 9.62585 7 9.18432C6.40938 8.67432 5.64375 8.41932 4.68125 8.41932C3.71875 8.41932 2.94219 8.69557 2.38438 9.25869V6.57057H0V16.9937H2.29688V16.1968C2.90937 16.7918 3.77344 17.1212 4.68125 17.0893C5.65469 17.0893 6.43125 16.8343 7 16.3243C7.42656 15.9418 7.7 15.3999 7.83125 14.6987ZM5.58906 12.7437C5.58906 11.9468 5.50156 11.3624 5.31563 11.0224C5.08594 10.5549 4.6375 10.3212 3.98125 10.3212C3.325 10.3212 2.8875 10.5549 2.64688 11.0224C2.47188 11.3731 2.37344 11.9468 2.37344 12.7437C2.37344 13.5406 2.47188 14.1249 2.64688 14.4862C2.87656 14.9537 3.325 15.1874 3.98125 15.1874C4.6375 15.1874 5.08594 14.9537 5.31563 14.4862C5.50156 14.1462 5.58906 13.5618 5.58906 12.7437ZM24.9484 16.9937H27.3109V11.5749C27.3109 10.5443 26.9828 9.73682 26.3484 9.16307C25.7906 8.66369 25.0359 8.41932 24.0953 8.41932C23.6591 8.40503 23.2244 8.4757 22.8168 8.62716C22.4092 8.77861 22.0369 9.00779 21.7219 9.30119V8.51494H19.4031V16.9937H21.7766V11.8618C21.7766 11.3306 21.9516 10.9374 22.2906 10.6612C22.5859 10.4274 22.9688 10.2999 23.3625 10.3212C23.7468 10.3067 24.1235 10.4275 24.4234 10.6612C24.7734 10.9268 24.9375 11.3306 24.9375 11.8618V16.9937H24.9484ZM15.4547 8.51494H17.8063V17.0043H15.4547V16.0056C15.1132 16.3614 14.6978 16.6426 14.2359 16.8306C13.7741 17.0186 13.2763 17.1091 12.7758 17.096C12.2752 17.083 11.7832 16.9667 11.3324 16.7549C10.8816 16.543 10.4823 16.2406 10.1609 15.8674C9.41119 14.9887 9.01827 13.8738 9.05625 12.7331C9.01848 11.6103 9.40786 10.5133 10.15 9.65182C10.4903 9.26489 10.9129 8.95432 11.3888 8.74153C11.8647 8.52874 12.3824 8.4188 12.9062 8.41932C14.3281 8.35557 15.0938 8.84432 15.4656 9.58807L15.4547 8.52557V8.51494ZM14.9953 11.0224C15.2141 11.3624 15.3234 11.9362 15.3234 12.7437C15.3234 13.5618 15.2141 14.1356 14.9953 14.4862C14.7109 14.9537 14.175 15.1874 13.3656 15.1874C12.5563 15.1874 12.0312 14.9537 11.7469 14.4862C11.5281 14.1249 11.4078 13.5512 11.4187 12.7437C11.4297 11.9362 11.5281 11.3624 11.7469 11.0118C12.0203 10.5549 12.5672 10.3212 13.3656 10.3212C14.1641 10.3212 14.7219 10.5549 15.0063 11.0224H14.9953ZM63.1203 8.40869C63.358 8.40612 63.5956 8.42033 63.8312 8.45119C63.6781 8.84432 63.5906 9.25869 63.5031 9.67307L63.3609 10.3106H62.3109C62.121 10.3025 61.9313 10.3312 61.7529 10.3951C61.5745 10.4589 61.411 10.5566 61.2719 10.6824C60.9328 11.0012 60.7469 11.4262 60.7797 11.8724V16.9724H58.4062V8.51494H60.725V9.32244C61.034 9.0135 61.4079 8.7729 61.8212 8.61705C62.2346 8.4612 62.6777 8.39375 63.1203 8.41932V8.40869ZM54.4359 8.51494H56.7875V16.9937H54.4359V16.0056C54.0935 16.3616 53.6771 16.643 53.2144 16.8311C52.7516 17.0192 52.253 17.1097 51.7516 17.0966C51.2501 17.0836 50.7573 16.9672 50.3056 16.7553C49.8538 16.5435 49.4536 16.2408 49.1312 15.8674C48.3854 14.9872 47.9965 13.8725 48.0375 12.7331C47.9997 11.6103 48.3891 10.5133 49.1312 9.65182C49.4693 9.26431 49.8897 8.95254 50.3636 8.73795C50.8376 8.52335 51.3537 8.41102 51.8766 8.40869C53.2984 8.35557 54.0641 8.83369 54.4359 9.59869V8.51494ZM53.9766 11.0224C54.1953 11.3624 54.3047 11.9362 54.3047 12.7437C54.3047 13.5618 54.1953 14.1356 53.9766 14.4862C53.6922 14.9537 53.1453 15.1874 52.3359 15.1874C51.5266 15.1874 51.0016 14.9537 50.7172 14.4862C50.4984 14.1249 50.3891 13.5512 50.3891 12.7437C50.3891 11.9362 50.4984 11.3624 50.7172 11.0118C51.0016 10.5549 51.5375 10.3212 52.3469 10.3212C53.1562 10.3212 53.6922 10.5549 53.9766 11.0224ZM37.2094 6.55994L30.8547 12.2231V8.54682H28.6672V17.0149L40.4031 6.54932H37.2094V6.55994ZM41.3438 12.2231L47.7094 6.54932H50.9031L39.1672 17.0149V8.54682H41.3438V12.2231ZM43.2797 14.5074L45.0297 16.9937H47.8406L44.9641 13.0093L43.2797 14.5074ZM34.5078 16.9937L32.7578 14.5074L34.4531 13.0093L37.3297 16.9937H34.5078Z" fill="#E11931"/>
<path fill-rule="evenodd" clip-rule="evenodd" d="M6.6937 1.43885L6.22339 1.77885L5.89526 2.0126V3.05385L6.07026 2.9476V3.42572L5.9062 3.5426V4.59447L6.07026 4.4776V4.96635L5.9062 5.0726V6.1351L6.22339 5.90135L6.6937 5.56135L7.31714 5.10447V3.34072C7.31714 3.26635 7.26245 3.19197 7.20776 3.1601C7.29526 3.0751 7.31714 3.00072 7.31714 2.91572V0.981973L6.6937 1.43885ZM7.09839 4.10572C7.09839 4.20135 7.05464 4.24385 6.96714 4.3076L6.6937 4.50947L6.28901 4.80697V4.31822L6.6937 4.02072L6.93433 3.85072C7.01089 3.78697 7.09839 3.7976 7.09839 3.8826V4.10572ZM7.09839 2.57572C7.09839 2.67135 7.05464 2.70322 6.96714 2.76697L6.6937 2.97947L6.28901 3.26635V2.7776L6.6937 2.49072L6.93433 2.3101C7.01089 2.25697 7.09839 2.2676 7.09839 2.3526V2.5651V2.57572ZM6.52964 1.2476V0.865098L6.23433 1.09885L6.13589 1.17322V0.780098L6.23433 0.705723L6.54058 0.471973V0.100098L6.23433 0.333848L5.9062 0.567598V1.7151L6.23433 1.48135L6.54058 1.2476H6.52964ZM5.04214 0.100098V0.471973L5.23901 0.620723V1.04572L5.16245 0.971348V1.34322L5.34839 1.49197L5.54526 1.6301V1.26885L5.45776 1.2051V0.790723L5.66558 0.939473V0.567598L5.34839 0.333848L5.04214 0.100098ZM4.25464 0.981973V2.03385L5.34839 2.83072L5.47964 2.93697L5.34839 3.04322L5.18433 3.2026L4.25464 2.5226V3.56385L4.54995 3.77635L4.25464 4.0526V5.10447L5.34839 5.90135L5.66558 6.1351V5.08322L5.34839 4.8601L4.42964 4.19072L4.73589 3.91447L5.34839 4.37135L5.66558 4.59447V3.5426L5.37026 3.3301L5.66558 3.06447V2.0126L5.34839 1.78947L4.25464 0.981973Z" fill="#EC1C24"/>
<path d="M11.2 4.26508H9.60317L11.1782 1.92758V1.50258H9.07817L8.93599 1.92758L10.4782 1.9382L8.87036 4.30758V4.71133H11.0579L11.211 4.28633L11.2 4.26508ZM11.8125 1.48133C11.5938 1.48133 11.4297 1.63008 11.4297 1.83195C11.4297 2.0232 11.6047 2.18258 11.8125 2.18258C12.0313 2.18258 12.2063 2.0232 12.2063 1.83195C12.2063 1.6407 12.0313 1.4707 11.8235 1.4707L11.8125 1.48133ZM12.0969 2.29945L11.5282 2.39508L11.5172 4.71133H12.0969L12.1079 2.31008L12.0969 2.29945ZM19.6985 4.35008H19.6875C19.6107 4.37829 19.5291 4.3927 19.4469 4.39258C19.2063 4.39258 19.1407 4.3182 19.1407 4.03133V2.67133H19.611L19.7641 2.31008L19.1516 2.29945V1.66195L18.5719 1.73633L18.561 2.29945H18.2766V2.6607L18.561 2.67133V4.15883C18.561 4.4457 18.6704 4.7857 19.25 4.7857C19.4271 4.78522 19.6022 4.74904 19.7641 4.67945L19.6985 4.3607V4.35008Z" fill="#231F20"/>
<path fill-rule="evenodd" clip-rule="evenodd" d="M14.9734 2.29969C15.3781 2.29969 15.6625 2.43781 15.7719 2.69281C15.8156 2.79906 15.8266 2.90531 15.8156 3.26656V4.77531L15.2359 4.78594L15.225 4.62656C15.058 4.73776 14.8585 4.79366 14.6562 4.78594C14.0984 4.78594 13.7812 4.53094 13.7812 4.07406C13.7812 3.53219 14.2187 3.24531 15.0828 3.24531H15.2359V3.08594C15.2359 2.82031 15.1922 2.69281 14.8969 2.69281C14.525 2.69281 14.1312 2.94781 14.1312 2.94781H14.1094L14.2187 2.44844C14.4565 2.34576 14.7133 2.29152 14.9734 2.28906V2.29969ZM14.7547 4.39281C14.9297 4.39281 15.1047 4.30781 15.2141 4.15906V3.62781L15.1375 3.61719C14.5469 3.61719 14.4156 3.78719 14.4156 4.04219C14.4156 4.25469 14.5469 4.39281 14.7656 4.39281H14.7547ZM17.2375 2.29969C17.6531 2.29969 17.9266 2.43781 18.0359 2.69281C18.0906 2.79906 18.0906 2.90531 18.0797 3.26656V4.77531L17.5 4.78594L17.4891 4.62656C17.3221 4.73776 17.1226 4.79366 16.9203 4.78594C16.3734 4.78594 16.0453 4.53094 16.0453 4.07406C16.0453 3.54281 16.4937 3.24531 17.3469 3.24531H17.5V3.13906C17.5 2.86281 17.4453 2.73531 17.15 2.73531C16.7781 2.73531 16.3844 3.00094 16.3844 3.00094L16.3625 2.99031L16.4719 2.45906V2.43781C16.7145 2.3407 16.9752 2.29367 17.2375 2.29969ZM17.0297 4.39281C17.2047 4.39281 17.3687 4.30781 17.4891 4.15906V3.62781L17.4016 3.61719C16.8109 3.61719 16.6797 3.78719 16.6797 4.04219C16.6797 4.25469 16.8109 4.39281 17.0297 4.39281Z" fill="#231F20"/>
<path d="M13.847 2.89432L13.9564 2.40557C13.8961 2.37405 13.8279 2.35935 13.7595 2.36307C13.508 2.36307 13.3111 2.46932 13.1033 2.71369V2.30994L13.0923 2.29932L12.5673 2.37369L12.5564 4.71119H13.1251L13.1361 3.18119C13.1671 3.08126 13.2309 2.99393 13.3178 2.93254C13.4047 2.87115 13.5099 2.83907 13.6173 2.84119C13.6851 2.85028 13.7513 2.86814 13.8142 2.89432H13.8361H13.847Z" fill="#231F20"/>
<path fill-rule="evenodd" clip-rule="evenodd" d="M22.3234 3.00082C22.4875 3.02207 22.6406 3.08582 22.75 3.1602C22.9687 3.29832 23.0781 3.5427 23.0781 3.81895C23.0781 4.07395 22.9687 4.30769 22.7937 4.45644C22.5094 4.69019 22.1594 4.71145 21.6453 4.71145H20.7266V1.48145H21.5687C21.8969 1.48145 22.2469 1.48145 22.5531 1.65145C22.7828 1.8002 22.925 2.03395 22.925 2.28895C22.925 2.42707 22.8812 2.62895 22.6734 2.79895C22.5717 2.88563 22.4525 2.95077 22.3234 2.9902V3.00082ZM21.1531 1.82145H21.7437C21.8969 1.82145 22.0719 1.82145 22.225 1.93832C22.2907 1.98669 22.3437 2.04941 22.3798 2.1214C22.4159 2.19339 22.4341 2.27263 22.4328 2.3527C22.4334 2.42746 22.417 2.50142 22.3849 2.56936C22.3527 2.6373 22.3056 2.69754 22.2469 2.74582C22.0937 2.8627 21.8859 2.8627 21.7875 2.8627H21.1531V1.82145ZM22.4219 4.24395C22.2797 4.3502 22.0719 4.37144 21.8969 4.37144H21.1531V3.2027H21.7766C21.9734 3.2027 22.2141 3.2027 22.3781 3.30895C22.4656 3.38332 22.5969 3.52145 22.5969 3.81895C22.5969 4.06332 22.4875 4.19082 22.4219 4.24395Z" fill="#231F20"/>
<path d="M26.7094 2.31031C26.557 2.31236 26.4073 2.34874 26.2719 2.41656C26.1351 2.47327 26.0093 2.55233 25.9 2.65031V2.31031H25.8891L25.4844 2.36344V4.70094H25.9V2.96906C26.0004 2.88082 26.1149 2.80904 26.2391 2.75656C26.3813 2.68219 26.5125 2.65031 26.6109 2.65031C26.7094 2.65031 26.8297 2.68219 26.8844 2.74594C26.9828 2.84156 26.9828 2.96906 26.9828 3.10719V4.70094H27.3984L27.4094 2.93719C27.4094 2.87344 27.4094 2.78844 27.3438 2.66094C27.2805 2.55225 27.1881 2.46225 27.0764 2.40051C26.9647 2.33877 26.8379 2.3076 26.7094 2.31031ZM28.6781 3.38344L29.7391 2.32094V2.29969H29.2141L28.175 3.36219V1.49219L27.7484 1.55594V4.70094H28.1641L28.175 3.39406L29.3563 4.70094H29.9031L28.6672 3.39406L28.6781 3.38344Z" fill="#231F20"/>
<path fill-rule="evenodd" clip-rule="evenodd" d="M23.822 2.38432C24.0023 2.32807 24.1904 2.29939 24.3798 2.29932C24.8938 2.29932 25.0688 2.53307 25.1235 2.67119C25.1673 2.77744 25.1673 2.90494 25.1563 3.01119V4.75369L24.7517 4.76432L24.7407 4.51994C24.5509 4.68272 24.3048 4.76999 24.0517 4.76432C23.5157 4.76432 23.2095 4.51994 23.2095 4.09494C23.2095 3.82932 23.3298 3.61682 23.5813 3.45744C23.8876 3.28744 24.3032 3.24494 24.5985 3.24494H24.7626V3.01119C24.7626 2.91557 24.7626 2.83057 24.6642 2.73494C24.5767 2.62869 24.4454 2.62869 24.336 2.62869C24.1501 2.62869 23.9751 2.68182 23.8985 2.70307C23.7663 2.75037 23.6413 2.8147 23.5267 2.89432H23.5048L23.5813 2.47994C23.6589 2.44201 23.7393 2.41004 23.822 2.38432ZM24.1063 4.47744C24.2339 4.47608 24.3587 4.44194 24.4682 4.37848C24.5777 4.31503 24.668 4.22453 24.7298 4.11619V3.53182H24.686L24.5548 3.52119C24.3579 3.52119 24.0079 3.54244 23.8438 3.69119C23.7345 3.77619 23.6798 3.90369 23.6798 4.06307C23.6798 4.23307 23.7454 4.31807 23.7892 4.37119C23.8657 4.43494 23.986 4.47744 24.1173 4.47744H24.1063ZM30.4501 2.38432C30.6304 2.32807 30.8186 2.29939 31.0079 2.29932C31.5329 2.29932 31.697 2.53307 31.7517 2.67119C31.7954 2.77744 31.7954 2.88369 31.7954 2.98994V4.75369L31.3798 4.76432L31.3688 4.51994C31.179 4.68272 30.9329 4.76999 30.6798 4.76432C30.1438 4.76432 29.8376 4.51994 29.8376 4.09494C29.8343 3.96591 29.8671 3.83844 29.9326 3.72614C29.9981 3.61385 30.0938 3.52097 30.2095 3.45744C30.5157 3.28744 30.9313 3.24494 31.2267 3.24494H31.3907V3.01119C31.3907 2.91557 31.3798 2.83057 31.2923 2.73494C31.1938 2.62869 31.0735 2.62869 30.9642 2.62869C30.7892 2.62869 30.6032 2.68182 30.5267 2.70307C30.3943 2.75001 30.2692 2.81436 30.1548 2.89432H30.1329L30.2095 2.47994C30.287 2.44205 30.3675 2.41008 30.4501 2.38432ZM30.7345 4.47744C30.9423 4.47744 31.2048 4.37119 31.3579 4.11619V3.53182H31.3142L31.1829 3.52119C30.986 3.52119 30.636 3.54244 30.461 3.69119C30.3626 3.77619 30.3079 3.90369 30.3079 4.06307C30.3079 4.23307 30.3735 4.31807 30.4173 4.37119C30.4938 4.43494 30.6032 4.47744 30.7454 4.47744H30.7345Z" fill="#231F20"/>
<path d="M33.3266 3.36193L32.9984 3.28755C32.725 3.23443 32.6156 3.1388 32.6156 2.9688C32.6156 2.7563 32.8016 2.60755 33.075 2.60755C33.2719 2.60755 33.4469 2.65005 33.6984 2.7563L33.8516 2.49068C33.6104 2.3621 33.3391 2.29622 33.0641 2.29943C32.5172 2.29943 32.1344 2.5863 32.1344 3.0113C32.1344 3.3513 32.3531 3.57443 32.7578 3.6488L33.075 3.70193C33.3813 3.75505 33.5125 3.87193 33.5125 4.08443C33.5125 4.30755 33.3266 4.46693 33.0313 4.46693C32.7797 4.46693 32.5063 4.39255 32.2109 4.25443H32.2L32.0469 4.52005C32.3422 4.67943 32.6813 4.76443 32.9875 4.76443C33.5891 4.76443 33.9938 4.4563 33.9938 3.99943C33.9938 3.67005 33.775 3.44693 33.3375 3.36193H33.3266ZM34.6281 2.31005L34.2125 2.36318L34.2016 4.70068H34.6172L34.6281 2.31005Z" fill="#231F20"/>
</g>
<defs>
<clipPath id="clip0_230_1471">
<rect width="70" height="17" fill="white" transform="translate(0 0.100098)"/>
</clipPath>
</defs>
</svg>
