<svg width="32" height="32" viewBox="0 0 32 32" fill="none" xmlns="http://www.w3.org/2000/svg">
<path d="M27.3914 4.61343C26.2074 3.8921 24.7647 3.83733 23.5327 4.472L20.5847 5.98534C20.214 6.17601 19.7874 6.17601 19.4167 5.98534L13.802 3.10269C13.246 2.81736 12.6367 2.67603 12.026 2.67203C12.0167 2.67203 12.01 2.66666 12.0007 2.66666C11.9914 2.66666 11.9847 2.67203 11.9754 2.67203C11.3647 2.67603 10.7554 2.81736 10.198 3.10269L5.60205 5.46402C3.79138 6.39335 2.66602 8.25605 2.66602 10.324V23.8932C2.66602 25.3372 3.39269 26.6427 4.61003 27.3867C5.79403 28.108 7.23538 28.1627 8.46871 27.528L11.4167 26.0146C11.7874 25.824 12.214 25.824 12.5847 26.0146L18.1994 28.8975C18.758 29.1841 19.3714 29.3281 19.9847 29.3307C19.99 29.3307 19.9954 29.3333 20.0007 29.3333C20.006 29.3333 20.0113 29.3307 20.0167 29.3307C20.63 29.3281 21.2434 29.1841 21.802 28.8975L26.398 26.5361C28.2087 25.6068 29.334 23.7441 29.334 21.6761V8.10676C29.3354 6.66276 28.6087 5.35743 27.3914 4.61343ZM7.25269 25.1533C6.67535 25.4493 6.18603 25.2201 6.00203 25.1081C5.58603 24.8534 5.33537 24.3986 5.33537 23.8906V10.3213C5.33537 9.25728 5.90469 8.30396 6.82202 7.83463L10.6687 5.85871V23.4668C10.5127 23.5228 10.35 23.5626 10.2007 23.64L7.25269 25.1533ZM13.8034 23.64C13.6541 23.5626 13.4914 23.5241 13.3354 23.4668V5.85741L18.2007 8.35595C18.35 8.43328 18.5127 8.47195 18.6687 8.52929V26.1387L13.8034 23.64ZM26.6687 21.6761C26.6687 22.7401 26.0994 23.6934 25.182 24.1628L21.3354 26.1387V8.52929C21.4914 8.47329 21.6541 8.43328 21.8034 8.35595L24.7514 6.84276C25.3274 6.54543 25.818 6.77601 26.002 6.88801C26.418 7.14268 26.6687 7.5973 26.6687 8.1053V21.6761Z" fill="#EC6D04"/>
</svg>
