<svg width="32" height="32" viewBox="0 0 32 32" fill="none" xmlns="http://www.w3.org/2000/svg">
<g clip-path="url(#clip0_273_10733)">
<path d="M27.2895 10.3107H28.7999C29.5543 10.3107 30.2778 10.6104 30.8112 11.1438C31.3447 11.6772 31.6443 12.4008 31.6443 13.1551V18.844C31.6443 19.5984 31.3447 20.3219 30.8112 20.8554C30.2778 21.3888 29.5543 21.6884 28.7999 21.6884H27.2895C26.9431 24.4382 25.605 26.9668 23.5262 28.7999C21.4476 30.633 18.7714 31.6443 15.9999 31.644V28.7996C18.2631 28.7996 20.4335 27.9005 22.0339 26.3002C23.6342 24.6999 24.5333 22.5294 24.5333 20.2663V11.7329C24.5333 9.46972 23.6342 7.29924 22.0339 5.69893C20.4335 4.09862 18.2631 3.19957 15.9999 3.19957C13.7367 3.19957 11.5662 4.09862 9.96594 5.69893C8.36563 7.29924 7.46658 9.46972 7.46658 11.7329V21.6884H3.19991C2.44552 21.6884 1.72202 21.3888 1.18859 20.8554C0.65515 20.3219 0.355469 19.5984 0.355469 18.844V13.1551C0.355469 12.4008 0.65515 11.6772 1.18859 11.1438C1.72202 10.6104 2.44552 10.3107 3.19991 10.3107H4.71031C5.05484 7.55944 6.39218 5.0287 8.47102 3.19394C10.5499 1.35918 13.2271 0.34668 15.9999 0.34668C18.7726 0.34668 21.45 1.35918 23.5288 3.19394C25.6076 5.0287 26.945 7.55944 27.2895 10.3107ZM3.19991 13.1551V18.844H4.62214V13.1551H3.19991ZM27.3776 13.1551V18.844H28.7999V13.1551H27.3776ZM9.96969 21.3826L11.4773 18.9649C12.8339 19.8115 14.4008 20.2605 15.9999 20.2605C17.599 20.2605 19.166 19.8115 20.5226 18.9649L22.0301 21.3826C20.2215 22.5119 18.1321 23.1106 15.9999 23.1106C13.8677 23.1106 11.7783 22.5119 9.96969 21.3826Z" fill="#EC6D04"/>
</g>
<defs>
<clipPath id="clip0_273_10733">
<rect width="32" height="32" fill="white"/>
</clipPath>
</defs>
</svg>
