<svg width="32" height="32" viewBox="0 0 32 32" fill="none" xmlns="http://www.w3.org/2000/svg">
<g clip-path="url(#clip0_273_10740)">
<path d="M31.3474 13.8006C30.7884 9.72673 28.6341 6.04177 25.3582 3.55635C22.0823 1.07093 17.9532 -0.011353 13.8794 0.547591C9.80553 1.10653 6.12057 3.26092 3.63515 6.53681C1.14973 9.81269 0.0674434 13.9417 0.626387 18.0156C1.08688 21.3874 2.63638 24.5165 5.03905 26.9265C7.44172 29.3366 10.566 30.8957 13.9364 31.3666C14.626 31.4569 15.3208 31.5024 16.0164 31.5026C18.8266 31.5072 21.5841 30.7403 23.9884 29.2856C24.1571 29.184 24.3042 29.0501 24.4212 28.8916C24.5382 28.7331 24.6229 28.5531 24.6703 28.3619C24.7178 28.1707 24.7271 27.9721 24.6978 27.7773C24.6684 27.5825 24.601 27.3953 24.4994 27.2266C24.3977 27.0578 24.2639 26.9108 24.1054 26.7938C23.9469 26.6768 23.7669 26.5921 23.5757 26.5447C23.1896 26.4488 22.7812 26.5103 22.4404 26.7156C20.729 27.7428 18.7966 28.3452 16.8047 28.4726C14.8128 28.5999 12.8194 28.2483 10.9912 27.4474C9.16297 26.6464 7.55316 25.4193 6.29641 23.8686C5.03965 22.318 4.17248 20.489 3.76746 18.5346C3.36243 16.5801 3.43131 14.5571 3.96835 12.6348C4.50538 10.7124 5.49495 8.94659 6.85428 7.48505C8.2136 6.02351 9.90315 4.90873 11.7816 4.23397C13.66 3.55921 15.6728 3.34408 17.6514 3.60659C19.4892 3.85095 21.2497 4.50106 22.8052 5.50983C24.3607 6.51859 25.6724 7.86075 26.6451 9.43906C27.6179 11.0174 28.2274 12.7923 28.4294 14.6352C28.6315 16.4782 28.4211 18.343 27.8134 20.0946C27.6557 20.5158 27.3708 20.8775 26.9983 21.1294C26.6257 21.3813 26.184 21.5111 25.7344 21.5006C25.1419 21.4998 24.5739 21.2641 24.1549 20.8451C23.7359 20.4261 23.5002 19.8581 23.4994 19.2656V10.0006C23.4994 9.60277 23.3414 9.22124 23.06 8.93993C22.7787 8.65863 22.3972 8.50059 21.9994 8.50059C21.6016 8.50059 21.22 8.65863 20.9387 8.93993C20.6574 9.22124 20.4994 9.60277 20.4994 10.0006V10.0146C19.3622 9.15633 18.0042 8.63971 16.5841 8.52519C15.164 8.41067 13.7407 8.70298 12.4807 9.36792C11.2208 10.0329 10.1762 11.0429 9.46939 12.2799C8.76255 13.5168 8.42265 14.9295 8.48946 16.3527C8.55628 17.7758 9.02704 19.1504 9.84667 20.3157C10.6663 21.481 11.8009 22.3888 13.1176 22.9327C14.4343 23.4767 15.8788 23.6343 17.2819 23.3873C18.685 23.1402 19.9887 22.4986 21.0404 21.5376C21.4653 22.4227 22.1311 23.1701 22.9613 23.6941C23.7915 24.2182 24.7526 24.4977 25.7344 24.5006C26.8076 24.5109 27.8575 24.1868 28.7381 23.5732C29.6187 22.9596 30.2864 22.087 30.6484 21.0766C31.4568 18.7414 31.6964 16.247 31.3474 13.8006ZM15.9994 20.5006C15.1094 20.5006 14.2393 20.2367 13.4993 19.7422C12.7593 19.2477 12.1825 18.5449 11.8419 17.7227C11.5013 16.9004 11.4122 15.9956 11.5859 15.1227C11.7595 14.2498 12.1881 13.4479 12.8174 12.8186C13.4467 12.1893 14.2486 11.7607 15.1215 11.5871C15.9944 11.4134 16.8992 11.5025 17.7215 11.8431C18.5437 12.1837 19.2465 12.7605 19.741 13.5005C20.2355 14.2405 20.4994 15.1106 20.4994 16.0006C20.4981 17.1937 20.0235 18.3375 19.1799 19.1811C18.3363 20.0247 17.1925 20.4993 15.9994 20.5006Z" fill="#EC6D04"/>
</g>
<defs>
<clipPath id="clip0_273_10740">
<rect width="32" height="32" fill="white"/>
</clipPath>
</defs>
</svg>
