<svg width="61" height="23" viewBox="0 0 61 23" fill="none" xmlns="http://www.w3.org/2000/svg">
<path d="M60.5573 11.103C60.5573 17.2471 55.4878 22.2195 49.224 22.2195C42.9601 22.2195 37.8906 17.2471 37.8906 11.103C37.8906 4.95887 42.9601 0 49.224 0C55.4878 0 60.5573 4.97249 60.5573 11.103Z" fill="#EC6D04"/>
<path d="M22.6667 11.103C22.6667 17.2471 17.5972 22.2195 11.3333 22.2195C5.06945 22.2195 0 17.2471 0 11.103C0 4.95887 5.06945 0 11.3333 0C17.5972 0 22.6667 4.97249 22.6667 11.103Z" fill="#F9AF02"/>
<path d="M42.0964 11.103C42.0964 17.2471 37.0269 22.2195 30.763 22.2195C24.4991 22.2195 19.4297 17.2471 19.4297 11.103C19.4297 4.95887 24.4991 0 30.763 0C37.0269 0 42.0964 4.97249 42.0964 11.103Z" fill="black"/>
</svg>
