<svg width="54" height="54" viewBox="0 0 54 54" fill="none" xmlns="http://www.w3.org/2000/svg">
<path d="M19.2847 27C21.1922 27 23.0568 26.4344 24.6428 25.3746C26.2288 24.3148 27.4649 22.8085 28.1948 21.0462C28.9247 19.2839 29.1156 17.3447 28.7433 15.4739C28.3711 13.6031 27.4524 11.8847 26.1035 10.536C24.7546 9.18732 23.036 8.26895 21.1651 7.89702C19.2942 7.52509 17.3551 7.71632 15.5929 8.44651C13.8307 9.17671 12.3246 10.4131 11.2651 11.9993C10.2056 13.5854 9.64029 15.4502 9.64063 17.3577C9.64331 19.9145 10.6603 22.3657 12.4684 24.1735C14.2764 25.9813 16.7279 26.9978 19.2847 27Z" fill="#F9AF02"/>
<path d="M31.9022 34.9666C29.4584 32.46 26.3228 30.7387 22.8961 30.0227C19.4693 29.3067 15.9069 29.6285 12.6639 30.9469C9.42086 32.2653 6.64445 34.5205 4.68932 37.4244C2.73419 40.3283 1.68908 43.7492 1.6875 47.2499C1.6875 47.6975 1.86529 48.1267 2.18176 48.4432C2.49822 48.7597 2.92745 48.9374 3.375 48.9374H35.2013C35.6488 48.9374 36.078 48.7597 36.3945 48.4432C36.711 48.1267 36.8888 47.6975 36.8888 47.2499C36.8953 45.4606 36.6191 43.6814 36.0703 41.9782C35.2532 39.345 33.825 36.9425 31.9022 34.9666Z" fill="#F9AF02"/>
<path d="M39.6562 27.8438C43.6172 27.8438 46.8281 24.6328 46.8281 20.6719C46.8281 16.711 43.6172 13.5 39.6562 13.5C35.6953 13.5 32.4844 16.711 32.4844 20.6719C32.4844 24.6328 35.6953 27.8438 39.6562 27.8438Z" fill="#F9AF02"/>
<path d="M39.657 29.8184C37.395 29.8269 35.1768 30.4429 33.2344 31.602C33.6006 31.9294 33.9701 32.2517 34.3161 32.6061C36.6138 34.9678 38.3207 37.8393 39.2976 40.9862C39.6321 42.0223 39.8788 43.0847 40.035 44.1621H50.6257C51.0733 44.1621 51.5025 43.9843 51.819 43.6679C52.1355 43.3514 52.3132 42.9222 52.3132 42.4746C52.3097 39.1191 50.9751 35.902 48.6024 33.5292C46.2296 31.1565 43.0125 29.8219 39.657 29.8184Z" fill="#F9AF02"/>
</svg>
