<svg xmlns="http://www.w3.org/2000/svg" width="35" height="45" viewBox="0 0 28 35"><defs><linearGradient id="dl0qy6rmna" x1="50%" x2="50%" y1="100%" y2=".27%"><stop offset="0%" stop-color="#FFF"></stop><stop offset="100%" stop-color="#F0FFF4"></stop></linearGradient></defs><g fill="none" fill-rule="evenodd"><g fill-rule="nonzero"><g><path fill="#0BC15C" stroke="#FFF" stroke-width="3" d="M22.803 4.963c-5.049 0-10.28-4.68-10.333-4.727-.347-.315-.877-.315-1.225 0-.052.048-5.27 4.727-10.333 4.727-.504 0-.912.409-.912.912V16.8c0 8.849 6.582 12.385 11.532 14.275.105.04.215.06.326.06.11 0 .22-.02.325-.06 6.941-2.65 11.532-6.784 11.532-14.275V5.875c0-.503-.408-.912-.912-.912z" transform="translate(-1236 -170) translate(1238 172)"></path><path fill="url(#dl0qy6rmna)" d="M11.858 9.182c-3.521 0-6.385 2.864-6.385 6.385 0 3.52 2.864 6.385 6.385 6.385 3.52 0 6.384-2.865 6.384-6.385 0-3.52-2.864-6.385-6.384-6.385zm2.469 6.118l-2.737 2.736c-.178.178-.411.267-.645.267-.233 0-.466-.089-.644-.267l-.913-.912c-.356-.356-.356-.934 0-1.29.357-.356.934-.356 1.29 0l.268.267 2.091-2.091c.356-.356.934-.356 1.29 0s.356.933 0 1.29z" transform="translate(-1236 -170) translate(1238 172)"></path></g></g></g></svg>